<svg width="691" height="308" viewBox="0 0 691 308" fill="none" xmlns="http://www.w3.org/2000/svg">
<rect width="691" height="308" fill="white"/>
<path d="M247.736 167.328C247.053 167.413 246.52 167.264 246.136 166.88C245.795 166.539 245.624 166.155 245.624 165.728C245.624 165.387 245.731 165.067 245.944 164.768C246.2 164.512 246.563 164.341 247.032 164.256C248.141 164.085 249.528 163.787 251.192 163.36C252.899 162.933 254.648 162.379 256.44 161.696C258.275 160.971 259.939 160.075 261.432 159.008C263.352 157.643 264.909 156.32 266.104 155.04C267.299 153.76 268.259 152.224 268.984 150.432C269.197 149.877 269.304 149.451 269.304 149.152C269.304 148.64 269.069 148.192 268.6 147.808C268.173 147.424 267.533 146.805 266.68 145.952C265.827 145.099 264.867 144.565 263.8 144.352C262.776 144.096 261.368 143.755 259.576 143.328C258.381 142.987 257.272 142.709 256.248 142.496C255.267 142.283 254.349 142.176 253.496 142.176C252.984 142.176 252.579 142.005 252.28 141.664C251.981 141.323 251.832 140.939 251.832 140.512C251.832 139.787 252.173 139.339 252.856 139.168C253.581 138.955 254.435 138.677 255.416 138.336C256.44 137.995 257.464 137.589 258.488 137.12C259.512 136.651 260.408 136.096 261.176 135.456C261.944 134.816 262.435 134.091 262.648 133.28C262.733 132.896 262.797 132.555 262.84 132.256C262.925 131.915 262.968 131.595 262.968 131.296C262.968 130.144 262.563 129.269 261.752 128.672C260.984 128.075 259.875 127.563 258.424 127.136C257.869 126.965 257.293 126.88 256.696 126.88C256.269 126.88 255.821 126.944 255.352 127.072C254.925 127.157 254.349 127.307 253.624 127.52C253.283 127.52 252.941 127.627 252.6 127.84C252.259 128.053 251.789 128.309 251.192 128.608C251.064 128.651 250.936 128.693 250.808 128.736C250.68 128.736 250.552 128.736 250.424 128.736C249.869 128.736 249.4 128.565 249.016 128.224C248.675 127.883 248.504 127.499 248.504 127.072C248.504 126.475 248.867 126.048 249.592 125.792C250.019 125.664 250.424 125.472 250.808 125.216C251.235 124.96 251.789 124.725 252.472 124.512C253.155 124.299 253.837 124.128 254.52 124C255.203 123.872 255.907 123.808 256.632 123.808C257.101 123.808 257.549 123.851 257.976 123.936C258.445 123.979 258.936 124.043 259.448 124.128C261.283 124.555 262.925 125.387 264.376 126.624C265.869 127.861 266.616 129.461 266.616 131.424C266.616 131.851 266.573 132.299 266.488 132.768C266.445 133.195 266.317 133.643 266.104 134.112C265.549 135.563 264.675 136.779 263.48 137.76C262.328 138.699 261.091 139.488 259.768 140.128C259.853 140.128 259.981 140.149 260.152 140.192C260.323 140.235 260.493 140.277 260.664 140.32C262.115 140.704 263.587 141.067 265.08 141.408C266.616 141.707 268.045 142.539 269.368 143.904C269.752 144.288 270.221 144.736 270.776 145.248C271.331 145.717 271.821 146.293 272.248 146.976C272.675 147.659 272.888 148.448 272.888 149.344C272.888 149.643 272.845 149.984 272.76 150.368C272.717 150.752 272.589 151.157 272.376 151.584C271.48 153.589 270.328 155.381 268.92 156.96C267.555 158.539 265.827 160.075 263.736 161.568C261.944 162.805 260.024 163.808 257.976 164.576C255.971 165.387 254.051 166.005 252.216 166.432C250.424 166.859 248.931 167.157 247.736 167.328ZM240.056 168.352C239.288 168.352 238.52 168.075 237.752 167.52C236.984 167.008 236.664 166.155 236.792 164.96C236.92 163.637 237.325 161.888 238.008 159.712C238.733 157.536 239.608 155.189 240.632 152.672C241.656 150.112 242.744 147.552 243.896 144.992C245.091 142.389 246.243 140 247.352 137.824C248.504 135.648 249.485 133.856 250.296 132.448C250.68 131.765 251.277 131.424 252.088 131.424C252.557 131.424 252.984 131.595 253.368 131.936C253.752 132.277 253.901 132.747 253.816 133.344V133.28C253.773 133.707 253.603 134.368 253.304 135.264C253.005 136.16 252.685 136.864 252.344 137.376C251.875 138.059 251.299 138.763 250.616 139.488C249.933 140.171 249.336 141.003 248.824 141.984C247.245 144.928 245.816 147.829 244.536 150.688C243.299 153.504 242.296 156.085 241.528 158.432C240.76 160.736 240.312 162.635 240.184 164.128C240.141 164.427 240.269 164.747 240.568 165.088C240.909 165.429 241.229 165.771 241.528 166.112C241.869 166.453 242.04 166.795 242.04 167.136C242.04 167.435 241.805 167.733 241.336 168.032C240.995 168.245 240.568 168.352 240.056 168.352ZM285.346 166.176C283.085 166.176 280.909 165.557 278.818 164.32C277.111 163.296 275.917 162.016 275.234 160.48C274.551 158.944 274.21 157.301 274.21 155.552C274.21 153.803 274.445 152.011 274.914 150.176C275.426 148.341 275.959 146.635 276.514 145.056C277.154 143.307 277.901 141.643 278.754 140.064C279.65 138.485 280.567 137.077 281.506 135.84C281.933 135.285 282.189 134.795 282.274 134.368C282.402 133.941 282.53 133.557 282.658 133.216C282.829 132.832 283.127 132.427 283.554 132C284.023 131.531 284.791 130.976 285.858 130.336C286.797 129.781 287.586 129.504 288.226 129.504C288.823 129.504 289.25 129.696 289.506 130.08C289.805 130.464 289.954 130.891 289.954 131.36C289.954 132.299 289.613 132.981 288.93 133.408L288.994 133.472C288.653 133.643 288.077 134.005 287.266 134.56C286.455 135.072 285.751 135.669 285.154 136.352C284.173 137.547 283.149 139.019 282.082 140.768C281.058 142.475 280.183 144.267 279.458 146.144C278.818 147.765 278.285 149.429 277.858 151.136C277.474 152.843 277.282 154.443 277.282 155.936C277.282 157.301 277.495 158.517 277.922 159.584C278.391 160.651 279.117 161.44 280.098 161.952C281.421 162.805 282.935 163.232 284.642 163.232C286.605 163.232 288.61 162.677 290.658 161.568C292.749 160.459 294.818 158.965 296.866 157.088C298.957 155.211 300.941 153.141 302.818 150.88C304.866 148.405 306.53 146.272 307.81 144.48C309.133 142.688 310.263 141.024 311.202 139.488C312.183 137.909 313.165 136.288 314.146 134.624C315.17 132.917 316.407 130.955 317.858 128.736C318.199 128.267 318.626 127.84 319.138 127.456C319.693 127.029 320.141 126.816 320.482 126.816C320.781 126.816 320.93 126.987 320.93 127.328C320.93 127.669 320.738 128.224 320.354 128.992C318.818 132.021 317.346 134.795 315.938 137.312C314.53 139.829 312.973 142.347 311.266 144.864C309.602 147.339 307.575 150.048 305.186 152.992C303.351 155.211 301.367 157.323 299.234 159.328C297.101 161.333 294.861 162.976 292.514 164.256C290.167 165.536 287.778 166.176 285.346 166.176ZM317.592 170.848C317.165 170.848 316.845 170.741 316.632 170.528C316.418 170.315 316.312 170.059 316.312 169.76C316.312 169.077 316.738 168.651 317.592 168.48C318.701 168.224 320.152 167.691 321.944 166.88C323.736 166.112 325.677 165.131 327.768 163.936C329.858 162.741 331.906 161.419 333.912 159.968C335.96 158.517 337.752 157.003 339.288 155.424C340.866 153.845 341.997 152.267 342.68 150.688C343.405 149.109 343.938 147.211 344.28 144.992C344.664 142.731 344.856 140.64 344.856 138.72C344.856 137.653 344.792 136.693 344.664 135.84C344.536 134.987 344.344 134.347 344.088 133.92C342.893 131.787 341.4 130.208 339.608 129.184C337.858 128.117 335.768 127.499 333.336 127.328C333.122 127.285 332.888 127.264 332.632 127.264C332.418 127.264 332.205 127.264 331.992 127.264C331.01 127.264 330.093 127.392 329.24 127.648C328.386 127.904 327.362 128.288 326.168 128.8C325.698 128.971 325.272 129.184 324.888 129.44C324.504 129.653 324.013 129.931 323.416 130.272C323.16 130.4 322.904 130.464 322.648 130.464C322.221 130.464 321.837 130.293 321.496 129.952C321.197 129.611 321.048 129.248 321.048 128.864C321.048 128.267 321.346 127.819 321.944 127.52C322.456 127.264 322.925 127.008 323.352 126.752C323.778 126.453 324.333 126.155 325.016 125.856C326.466 125.259 327.832 124.811 329.112 124.512C330.434 124.171 331.949 124.064 333.656 124.192C336.557 124.448 339.266 125.237 341.784 126.56C344.344 127.883 346.242 129.803 347.479 132.32C347.821 133.003 348.077 133.856 348.248 134.88C348.418 135.861 348.504 136.949 348.504 138.144C348.504 140.363 348.226 142.731 347.672 145.248C347.16 147.723 346.456 149.963 345.56 151.968C344.664 153.931 343.341 155.787 341.592 157.536C339.885 159.285 337.944 160.907 335.768 162.4C333.634 163.851 331.437 165.152 329.176 166.304C326.957 167.456 324.866 168.395 322.904 169.12C320.984 169.888 319.384 170.443 318.104 170.784C317.976 170.827 317.805 170.848 317.592 170.848ZM319.768 165.856C319.085 165.856 318.402 165.579 317.72 165.024C317.08 164.469 316.824 163.595 316.952 162.4C317.08 161.035 317.421 159.328 317.976 157.28C318.573 155.189 319.298 152.928 320.152 150.496C321.048 148.064 321.986 145.632 322.968 143.2C323.992 140.768 324.973 138.507 325.912 136.416C326.85 134.283 327.682 132.533 328.408 131.168C328.792 130.485 329.325 130.144 330.008 130.144C330.434 130.144 330.797 130.315 331.096 130.656C331.437 130.997 331.565 131.467 331.48 132.064L331.544 132C331.501 132.427 331.352 133.088 331.096 133.984C330.882 134.88 330.605 135.563 330.264 136.032C329.837 136.715 329.325 137.419 328.728 138.144C328.13 138.869 327.597 139.723 327.128 140.704C325.037 145.099 323.33 149.152 322.008 152.864C320.728 156.533 320.002 159.456 319.832 161.632C319.832 161.931 319.96 162.251 320.216 162.592C320.514 162.933 320.792 163.275 321.048 163.616C321.346 163.957 321.496 164.299 321.496 164.64C321.496 164.981 321.282 165.301 320.856 165.6C320.642 165.771 320.28 165.856 319.768 165.856ZM365.7 167.52C363.012 167.52 360.558 167.029 358.34 166.048C356.164 165.109 354.542 163.851 353.476 162.272C352.75 161.163 352.217 160.053 351.876 158.944C351.534 157.792 351.364 156.619 351.364 155.424C351.364 153.632 351.662 151.883 352.26 150.176C352.857 148.427 353.625 146.763 354.564 145.184C355.545 143.563 356.526 142.112 357.508 140.832C359.342 138.443 361.518 136.203 364.036 134.112C366.553 132.021 369.198 130.229 371.972 128.736C374.788 127.2 377.497 126.176 380.1 125.664C380.697 125.536 381.294 125.472 381.892 125.472C382.873 125.472 383.684 125.621 384.324 125.92C384.964 126.219 385.284 126.603 385.284 127.072C385.284 127.584 384.878 128.117 384.068 128.672C383.769 128.843 383.428 128.928 383.044 128.928C382.617 128.928 382.169 128.885 381.7 128.8C381.23 128.672 380.868 128.629 380.612 128.672C378.393 129.099 375.982 130.016 373.38 131.424C370.82 132.832 368.345 134.517 365.956 136.48C363.609 138.443 361.604 140.512 359.94 142.688C358.489 144.523 357.252 146.571 356.228 148.832C355.204 151.093 354.692 153.291 354.692 155.424C354.692 156.363 354.798 157.259 355.012 158.112C355.268 158.965 355.652 159.755 356.164 160.48C356.59 161.077 357.358 161.76 358.468 162.528C359.577 163.253 360.878 163.872 362.372 164.384C363.865 164.896 365.401 165.152 366.98 165.152C367.62 165.152 368.26 165.088 368.9 164.96C369.54 164.875 370.158 164.704 370.756 164.448C373.017 163.509 374.788 162.613 376.068 161.76C377.39 160.864 378.457 160.032 379.268 159.264C380.078 158.453 380.846 157.771 381.572 157.216C382.34 156.235 382.894 155.403 383.236 154.72C383.577 153.995 383.748 153.419 383.748 152.992C383.748 152.267 383.278 151.904 382.34 151.904C381.145 151.947 379.374 152.181 377.028 152.608C374.681 153.035 372.313 153.504 369.924 154.016C369.113 154.187 368.494 154.4 368.068 154.656C367.684 154.912 367.321 155.168 366.98 155.424C366.681 155.68 366.212 155.936 365.572 156.192C365.316 156.277 365.124 156.32 364.996 156.32C364.569 156.32 364.228 156.171 363.972 155.872C363.716 155.573 363.588 155.211 363.588 154.784C363.588 154.059 363.972 153.547 364.74 153.248C365.081 153.12 365.806 152.907 366.916 152.608C368.068 152.267 369.433 151.883 371.012 151.456C372.59 151.029 374.19 150.624 375.812 150.24C377.433 149.813 378.905 149.472 380.228 149.216C381.55 148.96 382.51 148.832 383.108 148.832C385.753 148.917 387.076 149.899 387.076 151.776C387.076 153.397 386.094 155.445 384.132 157.92C383.961 158.091 383.534 158.581 382.852 159.392C382.169 160.203 381.23 161.12 380.036 162.144C378.841 163.168 377.412 164.128 375.748 165.024C374.084 165.963 372.185 166.645 370.052 167.072C369.326 167.243 368.601 167.349 367.876 167.392C367.15 167.477 366.425 167.52 365.7 167.52ZM404.012 167.52C401.324 167.52 398.871 167.029 396.652 166.048C394.476 165.109 392.855 163.851 391.788 162.272C391.063 161.163 390.529 160.053 390.188 158.944C389.847 157.792 389.676 156.619 389.676 155.424C389.676 153.632 389.975 151.883 390.572 150.176C391.169 148.427 391.937 146.763 392.876 145.184C393.857 143.563 394.839 142.112 395.82 140.832C397.655 138.443 399.831 136.203 402.348 134.112C404.865 132.021 407.511 130.229 410.284 128.736C413.1 127.2 415.809 126.176 418.412 125.664C419.009 125.536 419.5 125.472 419.884 125.472C420.524 125.472 420.993 125.579 421.292 125.792C421.633 126.005 421.804 126.261 421.804 126.56C421.804 126.944 421.569 127.392 421.1 127.904C420.631 128.416 419.927 128.672 418.988 128.672H418.924C417.217 128.672 415.425 129.099 413.548 129.952C411.671 130.763 409.793 131.872 407.916 133.28C406.039 134.645 404.268 136.16 402.604 137.824C400.94 139.445 399.489 141.067 398.252 142.688C396.801 144.565 395.543 146.677 394.476 149.024C393.409 151.328 392.876 153.547 392.876 155.68C392.876 157.557 393.345 159.179 394.284 160.544C394.967 161.483 396.225 162.379 398.06 163.232C399.895 164.043 401.964 164.448 404.268 164.448C405.377 164.448 406.508 164.32 407.66 164.064C410.305 163.424 412.375 162.699 413.868 161.888C415.404 161.035 416.599 160.181 417.452 159.328C418.348 158.475 419.137 157.771 419.82 157.216C420.076 157.088 420.289 157.024 420.46 157.024C420.972 157.024 421.228 157.408 421.228 158.176C421.228 158.603 421.121 159.051 420.908 159.52C420.737 159.989 420.439 160.352 420.012 160.608C419.713 160.779 419.201 161.291 418.476 162.144C417.751 162.955 416.599 163.829 415.02 164.768C413.441 165.749 411.223 166.517 408.364 167.072C407.639 167.243 406.913 167.349 406.188 167.392C405.463 167.477 404.737 167.52 404.012 167.52ZM397.74 152.544C397.313 152.544 396.972 152.395 396.716 152.096C396.46 151.797 396.332 151.456 396.332 151.072C396.332 150.304 396.716 149.792 397.484 149.536C398.295 149.237 398.999 148.917 399.596 148.576C400.236 148.192 401.004 147.915 401.9 147.744C401.9 147.744 402.263 147.659 402.988 147.488C403.756 147.317 404.716 147.104 405.868 146.848C407.063 146.549 408.3 146.272 409.58 146.016C410.86 145.717 412.055 145.483 413.164 145.312C414.316 145.141 415.191 145.056 415.788 145.056C416.3 145.056 416.684 145.184 416.94 145.44C417.196 145.696 417.324 145.995 417.324 146.336C417.324 146.677 417.196 147.019 416.94 147.36C416.684 147.659 416.279 147.851 415.724 147.936C413.932 148.277 412.353 148.512 410.988 148.64C409.623 148.768 408.279 148.939 406.956 149.152C405.676 149.323 404.247 149.685 402.668 150.24V150.304C401.985 150.56 401.324 150.901 400.684 151.328C400.044 151.712 399.255 152.075 398.316 152.416C398.06 152.501 397.868 152.544 397.74 152.544ZM428.488 124.352C428.232 124.352 427.976 124.128 427.72 123.68C427.464 123.232 427.336 122.752 427.336 122.24C427.336 121.344 427.688 120.736 428.392 120.416C431.4 118.944 434.088 117.472 436.456 116C438.824 114.528 441.608 113.28 444.808 112.256C447.752 111.36 450.952 110.688 454.408 110.24C457.928 109.792 461.064 109.568 463.816 109.568H467.08C469.064 109.568 470.92 109.664 472.648 109.856C474.376 110.048 475.944 110.592 477.352 111.488C477.352 111.488 477.672 111.616 478.312 111.872C479.016 112.128 479.56 112.544 479.944 113.12C480.2 113.44 480.36 113.792 480.424 114.176C480.488 114.56 480.52 114.976 480.52 115.424C480.52 115.68 480.52 115.936 480.52 116.192C480.52 116.448 480.488 116.736 480.424 117.056C480.36 117.568 480.264 118.176 480.135 118.88C480.072 119.52 479.784 120.096 479.272 120.608C478.888 121.184 478.408 121.568 477.832 121.76C477.256 121.952 476.904 122.048 476.776 122.048H476.583C476.008 122.048 475.592 121.888 475.336 121.568C475.144 121.248 475.048 120.864 475.048 120.416C475.048 119.648 475.176 118.912 475.432 118.208C475.752 117.44 475.912 117.024 475.912 116.96V116.864C475.912 116.416 475.464 115.872 474.568 115.232C473.032 114.144 471.208 113.504 469.096 113.312C466.984 113.12 464.648 113.024 462.088 113.024C459.784 113.024 457.16 113.344 454.216 113.984C451.336 114.56 448.328 115.392 445.192 116.48C442.12 117.568 439.144 118.784 436.264 120.128C433.448 121.408 430.952 122.784 428.776 124.256C428.712 124.32 428.616 124.352 428.488 124.352ZM443.464 166.784C442.44 166.784 441.416 166.368 440.392 165.536C439.432 164.768 439.048 163.488 439.24 161.696C439.432 159.712 439.912 157.184 440.68 154.112C441.512 151.04 442.504 147.744 443.656 144.224C444.872 140.64 446.152 137.056 447.496 133.472C448.904 129.888 450.248 126.56 451.528 123.488C452.872 120.352 454.088 117.728 455.176 115.616C455.752 114.592 456.552 114.08 457.576 114.08C458.152 114.08 458.664 114.304 459.112 114.752C459.56 115.136 459.784 115.744 459.784 116.576C459.784 116.768 459.688 117.28 459.496 118.112C459.368 118.944 459.144 119.84 458.824 120.8C458.568 121.696 458.28 122.4 457.96 122.912C457.32 123.936 456.552 125.024 455.656 126.176C454.76 127.264 453.96 128.544 453.256 130.016C450.12 136.608 447.752 142.528 446.152 147.776C444.616 152.96 443.72 157.184 443.464 160.448C443.464 160.896 443.656 161.376 444.04 161.888C444.488 162.4 444.904 162.912 445.288 163.424C445.736 163.936 445.96 164.448 445.96 164.96C445.96 165.472 445.64 165.952 445 166.4C444.68 166.656 444.168 166.784 443.464 166.784ZM475.491 168.352C474.893 168.352 474.317 168.139 473.763 167.712C473.208 167.328 472.931 166.624 472.931 165.6C472.931 165.472 472.931 165.323 472.931 165.152C472.931 165.024 472.952 164.875 472.995 164.704C473.933 159.413 475.192 154.549 476.771 150.112C478.392 145.675 480.056 141.728 481.763 138.272C483.469 134.816 484.92 131.936 486.115 129.632C486.456 128.992 486.904 128.523 487.458 128.224C488.056 127.883 488.611 127.712 489.123 127.712C489.891 127.712 490.339 128.011 490.467 128.608C491.32 128.267 492.152 128.032 492.963 127.904C493.56 127.819 494.157 127.755 494.755 127.712C495.395 127.627 496.035 127.584 496.675 127.584C498.339 127.584 499.896 127.819 501.347 128.288C502.84 128.715 504.056 129.483 504.995 130.592C505.933 131.701 506.403 133.216 506.403 135.136C506.403 137.312 505.72 139.189 504.354 140.768C502.989 142.304 501.197 143.691 498.979 144.928C496.803 146.123 494.456 147.339 491.939 148.576C491.341 148.704 490.552 148.939 489.571 149.28C488.632 149.621 487.971 149.792 487.587 149.792L487.651 149.856C487.736 150.197 488.099 150.773 488.739 151.584C489.421 152.395 490.211 153.291 491.107 154.272C492.045 155.253 493.027 156.213 494.051 157.152C495.075 158.091 496.013 158.901 496.867 159.584C497.72 160.224 498.36 160.629 498.787 160.8C499.768 161.099 500.451 161.419 500.835 161.76C501.219 162.059 501.411 162.336 501.411 162.592C501.411 162.848 501.24 163.061 500.899 163.232C500.557 163.403 500.152 163.488 499.683 163.488C498.915 163.488 497.869 163.125 496.547 162.4C495.224 161.632 493.837 160.693 492.387 159.584C490.936 158.432 489.613 157.28 488.419 156.128C487.224 154.933 486.371 153.931 485.859 153.12C485.688 152.693 485.368 152.416 484.899 152.288C484.429 152.117 483.981 151.904 483.555 151.648C483.128 151.392 482.915 150.923 482.915 150.24C482.915 149.301 483.192 148.619 483.747 148.192C484.344 147.723 485.069 147.403 485.923 147.232C486.776 147.019 487.629 146.869 488.483 146.784C489.336 146.656 490.04 146.464 490.595 146.208C494.563 144.373 497.741 142.475 500.131 140.512C502.52 138.549 503.565 136.587 503.267 134.624C503.267 133.728 502.883 132.939 502.115 132.256C501.347 131.573 500.323 131.04 499.043 130.656C497.805 130.229 496.44 130.016 494.947 130.016C494.179 130.016 493.368 130.08 492.515 130.208C492.045 130.208 491.683 130.379 491.427 130.72C491.171 131.019 490.851 131.36 490.467 131.744C490.125 132.128 489.549 132.469 488.739 132.768C488.483 132.853 488.291 132.896 488.163 132.896C487.395 134.219 486.541 135.84 485.603 137.76C484.664 139.68 483.704 141.707 482.723 143.84C481.741 145.931 480.845 147.957 480.035 149.92C479.224 151.883 478.563 153.589 478.051 155.04C477.837 155.637 477.624 156.427 477.411 157.408C477.197 158.347 477.005 159.349 476.835 160.416C476.664 161.483 476.536 162.443 476.451 163.296C476.365 164.107 476.323 164.683 476.323 165.024C476.323 165.28 476.493 165.557 476.835 165.856C477.219 166.197 477.411 166.56 477.411 166.944C477.411 167.328 477.176 167.691 476.707 168.032C476.365 168.245 475.96 168.352 475.491 168.352ZM527.134 169.824C526.707 169.824 526.345 169.675 526.046 169.376C525.747 169.12 525.641 168.715 525.726 168.16C525.982 166.752 526.153 165.771 526.238 165.216C526.366 164.704 526.451 164.32 526.494 164.064C526.579 163.808 526.665 163.445 526.75 162.976C526.878 162.507 527.027 161.632 527.198 160.352C527.539 158.304 527.774 156.405 527.902 154.656C528.03 152.864 528.115 151.221 528.158 149.728C526.537 149.899 525.001 150.069 523.55 150.24C522.142 150.411 520.563 150.816 518.814 151.456H518.75C518.067 151.712 517.406 152.075 516.766 152.544C516.126 152.971 515.358 153.355 514.462 153.696C514.206 153.781 513.993 153.824 513.822 153.824C513.31 153.824 512.926 153.611 512.67 153.184C512.457 152.715 512.393 152.267 512.478 151.84C512.179 152.309 511.881 152.715 511.582 153.056C510.857 154.123 510.217 155.061 509.662 155.872C509.15 156.64 508.531 157.557 507.806 158.624C507.123 159.605 506.526 160.693 506.014 161.888C505.502 163.04 504.947 164.107 504.35 165.088C504.051 165.515 503.667 165.728 503.198 165.728C502.729 165.728 502.302 165.536 501.918 165.152C501.534 164.768 501.342 164.32 501.342 163.808C501.342 163.509 501.427 163.211 501.598 162.912C502.238 161.931 502.814 161.099 503.326 160.416C503.881 159.691 504.478 158.859 505.118 157.92C505.886 156.811 506.526 155.872 507.038 155.104C507.593 154.336 508.211 153.44 508.894 152.416C509.705 151.221 510.43 150.176 511.07 149.28C511.753 148.384 512.414 147.488 513.054 146.592C513.737 145.653 514.462 144.608 515.23 143.456C515.913 142.389 516.446 141.387 516.83 140.448C517.257 139.467 517.705 138.507 518.174 137.568C518.686 136.629 519.411 135.691 520.35 134.752L520.414 134.688C521.395 133.707 522.377 132.555 523.358 131.232C524.339 129.867 525.043 128.715 525.47 127.776C526.281 126.837 527.177 126.368 528.158 126.368C529.31 126.368 530.27 127.008 531.038 128.288C531.209 128.715 531.315 129.12 531.358 129.504C531.401 129.888 531.422 130.272 531.422 130.656C531.422 131.253 531.379 131.829 531.294 132.384C531.251 132.939 531.23 133.493 531.23 134.048C531.273 135.456 531.294 136.715 531.294 137.824C531.337 138.891 531.358 140.021 531.358 141.216C531.358 141.771 531.358 142.347 531.358 142.944C531.358 143.541 531.337 144.181 531.294 144.864C531.294 145.035 531.273 145.269 531.23 145.568C531.23 145.867 531.23 146.08 531.23 146.208H531.87C532.382 146.208 532.766 146.336 533.022 146.592C533.278 146.848 533.406 147.147 533.406 147.488C533.406 147.829 533.278 148.171 533.022 148.512C532.766 148.811 532.361 149.003 531.806 149.088C531.678 149.131 531.55 149.173 531.422 149.216C531.294 149.216 531.145 149.259 530.974 149.344C530.889 150.24 530.803 151.157 530.718 152.096C530.633 152.992 530.526 153.995 530.398 155.104C530.227 156.768 530.078 158.261 529.95 159.584C529.865 160.864 529.737 162.187 529.566 163.552C529.438 164.875 529.203 166.496 528.862 168.416C528.777 168.885 528.563 169.227 528.222 169.44C527.881 169.696 527.518 169.824 527.134 169.824ZM517.79 144.864C516.937 146.229 516.169 147.317 515.486 148.128C514.803 148.939 514.099 149.835 513.374 150.816L513.566 150.624C514.377 150.325 515.081 150.005 515.678 149.664C516.318 149.28 517.086 149.003 517.982 148.832C517.982 148.832 518.537 148.704 519.646 148.448C520.755 148.192 522.099 147.893 523.678 147.552C525.299 147.168 526.835 146.848 528.286 146.592L528.35 144.416C528.35 144.032 528.35 143.648 528.35 143.264C528.393 142.88 528.414 142.539 528.414 142.24C528.414 140.875 528.371 139.637 528.286 138.528C528.243 137.419 528.201 136.011 528.158 134.304C528.243 133.707 528.307 133.152 528.35 132.64C528.393 132.128 528.414 131.659 528.414 131.232C528.414 130.549 528.35 130.08 528.222 129.824C528.137 129.824 527.987 129.845 527.774 129.888C527.603 129.888 527.433 129.973 527.262 130.144C526.494 130.656 525.811 131.445 525.214 132.512C524.659 133.579 523.913 134.816 522.974 136.224V136.16C521.907 137.739 521.054 139.168 520.414 140.448C519.774 141.685 518.899 143.157 517.79 144.864ZM551.137 167.52C548.449 167.52 545.996 167.029 543.777 166.048C541.601 165.109 539.98 163.851 538.913 162.272C538.188 161.163 537.654 160.053 537.313 158.944C536.972 157.792 536.801 156.619 536.801 155.424C536.801 153.632 537.1 151.883 537.697 150.176C538.294 148.427 539.062 146.763 540.001 145.184C540.982 143.563 541.964 142.112 542.945 140.832C544.78 138.443 546.956 136.203 549.473 134.112C551.99 132.021 554.636 130.229 557.409 128.736C560.182 127.2 562.87 126.176 565.473 125.664C566.198 125.493 567.052 125.408 568.033 125.408C569.996 125.408 571.83 125.899 573.537 126.88C575.244 127.861 576.268 129.419 576.609 131.552C576.609 132.192 576.332 132.725 575.777 133.152C575.265 133.579 574.774 133.792 574.305 133.792C573.622 133.792 573.281 133.429 573.281 132.704V132.64C573.281 131.659 572.684 130.741 571.489 129.888C570.337 128.992 568.972 128.544 567.393 128.544C567.18 128.544 566.945 128.565 566.689 128.608C566.476 128.608 566.262 128.629 566.049 128.672C563.83 129.099 561.42 130.016 558.817 131.424C556.257 132.832 553.782 134.517 551.393 136.48C549.046 138.443 547.041 140.512 545.377 142.688C543.926 144.565 542.668 146.677 541.601 149.024C540.534 151.328 540.001 153.547 540.001 155.68C540.001 157.557 540.47 159.179 541.409 160.544C542.092 161.483 543.35 162.379 545.185 163.232C547.02 164.043 549.089 164.448 551.393 164.448C552.502 164.448 553.633 164.32 554.785 164.064C557.43 163.424 559.5 162.699 560.993 161.888C562.529 161.035 563.724 160.181 564.577 159.328C565.473 158.475 566.262 157.771 566.945 157.216C567.201 157.088 567.414 157.024 567.585 157.024C568.097 157.024 568.353 157.408 568.353 158.176C568.353 158.603 568.246 159.051 568.033 159.52C567.862 159.989 567.564 160.352 567.137 160.608C566.838 160.779 566.326 161.291 565.601 162.144C564.876 162.955 563.724 163.829 562.145 164.768C560.566 165.749 558.348 166.517 555.489 167.072C554.764 167.243 554.038 167.349 553.313 167.392C552.588 167.477 551.862 167.52 551.137 167.52ZM578.991 165.92C578.436 165.92 577.903 165.707 577.391 165.28C576.921 164.896 576.687 164.213 576.687 163.232C576.687 163.104 576.687 162.955 576.687 162.784C576.687 162.613 576.708 162.443 576.751 162.272C577.689 156.981 578.948 152.139 580.527 147.744C582.148 143.307 583.812 139.36 585.519 135.904C587.225 132.448 588.676 129.568 589.871 127.264C590.212 126.624 590.66 126.155 591.215 125.856C591.812 125.515 592.345 125.344 592.815 125.344C593.156 125.344 593.455 125.429 593.711 125.6C593.967 125.771 594.095 126.027 594.095 126.368C594.095 126.837 593.817 127.435 593.263 128.16C592.623 128.928 591.876 130.037 591.023 131.488C590.169 132.939 589.295 134.56 588.399 136.352C587.503 138.144 586.628 140.021 585.775 141.984C584.964 143.947 584.26 145.824 583.663 147.616C584.004 147.403 584.537 146.933 585.263 146.208C586.031 145.483 586.799 144.843 587.567 144.288C589.06 143.179 590.553 142.112 592.047 141.088C593.54 140.064 595.204 138.997 597.039 137.888C598.873 136.736 600.964 135.477 603.311 134.112C605.657 132.747 608.388 131.211 611.503 129.504C611.801 129.333 612.143 129.248 612.527 129.248C612.953 129.248 613.337 129.376 613.679 129.632C614.02 129.845 614.233 130.208 614.319 130.72C614.404 131.104 614.255 131.403 613.871 131.616C613.529 131.829 613.124 132 612.655 132.128C612.185 132.256 611.801 132.405 611.503 132.576C607.364 134.923 603.887 137.035 601.071 138.912C598.255 140.789 595.801 142.432 593.711 143.84C591.663 145.248 589.679 146.464 587.759 147.488C587.204 147.787 586.649 148.235 586.095 148.832C585.54 149.429 585.113 149.963 584.815 150.432C584.516 150.901 584.452 151.093 584.623 151.008C584.708 151.349 585.071 151.925 585.711 152.736C586.393 153.547 587.204 154.443 588.143 155.424C589.081 156.405 590.041 157.365 591.023 158.304C592.047 159.243 592.985 160.053 593.839 160.736C594.692 161.376 595.353 161.781 595.823 161.952C596.804 162.251 597.487 162.592 597.871 162.976C598.255 163.36 598.447 163.723 598.447 164.064C598.447 164.448 598.276 164.768 597.935 165.024C597.593 165.28 597.188 165.408 596.719 165.408C596.591 165.408 596.463 165.387 596.335 165.344C596.249 165.344 596.143 165.323 596.015 165.28C595.289 165.024 594.244 164.469 592.878 163.616C591.513 162.72 590.063 161.696 588.527 160.544C587.033 159.349 585.647 158.176 584.367 157.024C583.129 155.872 582.255 154.912 581.743 154.144C581.444 154.912 581.124 155.872 580.783 157.024C580.484 158.176 580.249 159.285 580.079 160.352C579.908 161.376 579.823 162.123 579.823 162.592C579.823 162.848 579.993 163.147 580.335 163.488C580.719 163.787 580.911 164.128 580.911 164.512C580.911 164.896 580.676 165.259 580.207 165.6C579.865 165.813 579.46 165.92 578.991 165.92ZM618.512 167.52C615.824 167.52 613.371 167.029 611.152 166.048C608.976 165.109 607.355 163.851 606.288 162.272C605.563 161.163 605.029 160.053 604.688 158.944C604.347 157.792 604.176 156.619 604.176 155.424C604.176 153.632 604.475 151.883 605.072 150.176C605.669 148.427 606.437 146.763 607.376 145.184C608.357 143.563 609.339 142.112 610.32 140.832C612.155 138.443 614.331 136.203 616.848 134.112C619.365 132.021 622.011 130.229 624.784 128.736C627.6 127.2 630.309 126.176 632.912 125.664C633.509 125.536 634 125.472 634.384 125.472C635.024 125.472 635.493 125.579 635.792 125.792C636.133 126.005 636.304 126.261 636.304 126.56C636.304 126.944 636.069 127.392 635.6 127.904C635.131 128.416 634.427 128.672 633.488 128.672H633.424C631.717 128.672 629.925 129.099 628.048 129.952C626.171 130.763 624.293 131.872 622.416 133.28C620.539 134.645 618.768 136.16 617.104 137.824C615.44 139.445 613.989 141.067 612.752 142.688C611.301 144.565 610.043 146.677 608.976 149.024C607.909 151.328 607.376 153.547 607.376 155.68C607.376 157.557 607.845 159.179 608.784 160.544C609.467 161.483 610.725 162.379 612.56 163.232C614.395 164.043 616.464 164.448 618.768 164.448C619.877 164.448 621.008 164.32 622.16 164.064C624.805 163.424 626.875 162.699 628.368 161.888C629.904 161.035 631.099 160.181 631.952 159.328C632.848 158.475 633.637 157.771 634.32 157.216C634.576 157.088 634.789 157.024 634.96 157.024C635.472 157.024 635.728 157.408 635.728 158.176C635.728 158.603 635.621 159.051 635.408 159.52C635.237 159.989 634.939 160.352 634.512 160.608C634.213 160.779 633.701 161.291 632.976 162.144C632.251 162.955 631.099 163.829 629.52 164.768C627.941 165.749 625.723 166.517 622.864 167.072C622.139 167.243 621.413 167.349 620.688 167.392C619.963 167.477 619.237 167.52 618.512 167.52ZM612.24 152.544C611.813 152.544 611.472 152.395 611.216 152.096C610.96 151.797 610.832 151.456 610.832 151.072C610.832 150.304 611.216 149.792 611.984 149.536C612.795 149.237 613.499 148.917 614.096 148.576C614.736 148.192 615.504 147.915 616.4 147.744C616.4 147.744 616.763 147.659 617.488 147.488C618.256 147.317 619.216 147.104 620.368 146.848C621.563 146.549 622.8 146.272 624.08 146.016C625.36 145.717 626.555 145.483 627.664 145.312C628.816 145.141 629.691 145.056 630.288 145.056C630.8 145.056 631.184 145.184 631.44 145.44C631.696 145.696 631.824 145.995 631.824 146.336C631.824 146.677 631.696 147.019 631.44 147.36C631.184 147.659 630.779 147.851 630.224 147.936C628.432 148.277 626.853 148.512 625.488 148.64C624.123 148.768 622.779 148.939 621.456 149.152C620.176 149.323 618.747 149.685 617.168 150.24V150.304C616.485 150.56 615.824 150.901 615.184 151.328C614.544 151.712 613.755 152.075 612.816 152.416C612.56 152.501 612.368 152.544 612.24 152.544ZM643.116 168.352C642.518 168.352 641.942 168.139 641.388 167.712C640.833 167.328 640.556 166.624 640.556 165.6C640.556 165.472 640.556 165.323 640.556 165.152C640.556 165.024 640.577 164.875 640.62 164.704C641.558 159.413 642.817 154.549 644.396 150.112C646.017 145.675 647.681 141.728 649.388 138.272C651.094 134.816 652.545 131.936 653.74 129.632C654.081 128.992 654.529 128.523 655.083 128.224C655.681 127.883 656.236 127.712 656.748 127.712C657.516 127.712 657.964 128.011 658.092 128.608C658.945 128.267 659.777 128.032 660.588 127.904C661.185 127.819 661.782 127.755 662.38 127.712C663.02 127.627 663.66 127.584 664.3 127.584C665.964 127.584 667.521 127.819 668.972 128.288C670.465 128.715 671.681 129.483 672.62 130.592C673.558 131.701 674.028 133.216 674.028 135.136C674.028 137.312 673.345 139.189 671.979 140.768C670.614 142.304 668.822 143.691 666.604 144.928C664.428 146.123 662.081 147.339 659.564 148.576C658.966 148.704 658.177 148.939 657.196 149.28C656.257 149.621 655.596 149.792 655.212 149.792L655.276 149.856C655.361 150.197 655.724 150.773 656.364 151.584C657.046 152.395 657.836 153.291 658.732 154.272C659.67 155.253 660.652 156.213 661.676 157.152C662.7 158.091 663.638 158.901 664.492 159.584C665.345 160.224 665.985 160.629 666.412 160.8C667.393 161.099 668.076 161.419 668.46 161.76C668.844 162.059 669.036 162.336 669.036 162.592C669.036 162.848 668.865 163.061 668.524 163.232C668.182 163.403 667.777 163.488 667.308 163.488C666.54 163.488 665.494 163.125 664.172 162.4C662.849 161.632 661.462 160.693 660.012 159.584C658.561 158.432 657.238 157.28 656.044 156.128C654.849 154.933 653.996 153.931 653.484 153.12C653.313 152.693 652.993 152.416 652.524 152.288C652.054 152.117 651.606 151.904 651.18 151.648C650.753 151.392 650.54 150.923 650.54 150.24C650.54 149.301 650.817 148.619 651.372 148.192C651.969 147.723 652.694 147.403 653.548 147.232C654.401 147.019 655.254 146.869 656.108 146.784C656.961 146.656 657.665 146.464 658.22 146.208C662.188 144.373 665.366 142.475 667.756 140.512C670.145 138.549 671.19 136.587 670.892 134.624C670.892 133.728 670.508 132.939 669.74 132.256C668.972 131.573 667.948 131.04 666.668 130.656C665.43 130.229 664.065 130.016 662.572 130.016C661.804 130.016 660.993 130.08 660.14 130.208C659.67 130.208 659.308 130.379 659.052 130.72C658.796 131.019 658.476 131.36 658.092 131.744C657.75 132.128 657.174 132.469 656.364 132.768C656.108 132.853 655.916 132.896 655.788 132.896C655.02 134.219 654.166 135.84 653.228 137.76C652.289 139.68 651.329 141.707 650.348 143.84C649.366 145.931 648.47 147.957 647.66 149.92C646.849 151.883 646.188 153.589 645.676 155.04C645.462 155.637 645.249 156.427 645.036 157.408C644.822 158.347 644.63 159.349 644.46 160.416C644.289 161.483 644.161 162.443 644.076 163.296C643.99 164.107 643.948 164.683 643.948 165.024C643.948 165.28 644.118 165.557 644.46 165.856C644.844 166.197 645.036 166.56 645.036 166.944C645.036 167.328 644.801 167.691 644.332 168.032C643.99 168.245 643.585 168.352 643.116 168.352Z" fill="#61727C"/>
<path d="M223.308 165.743C193.078 215.733 166.268 244.894 127.173 292C84.2332 242.01 63.9372 214.131 32 165.743C32 112.649 74.0796 35 127.173 35C180.267 35 223.308 112.649 223.308 165.743Z" fill="#61727C"/>
<path d="M125.629 180.892V106.314H130.407V180.892H125.629ZM141.71 128.688C141.36 125.736 139.943 123.444 137.457 121.813C134.971 120.181 131.922 119.365 128.309 119.365C125.668 119.365 123.357 119.793 121.376 120.647C119.415 121.502 117.88 122.677 116.773 124.172C115.686 125.668 115.142 127.367 115.142 129.27C115.142 130.863 115.521 132.232 116.278 133.378C117.055 134.504 118.045 135.446 119.249 136.204C120.454 136.942 121.716 137.553 123.037 138.039C124.357 138.505 125.571 138.884 126.678 139.175L132.737 140.806C134.291 141.214 136.02 141.777 137.923 142.496C139.846 143.215 141.681 144.195 143.429 145.438C145.196 146.662 146.653 148.235 147.799 150.158C148.944 152.08 149.517 154.44 149.517 157.237C149.517 160.461 148.673 163.374 146.983 165.976C145.313 168.579 142.866 170.647 139.642 172.181C136.437 173.716 132.543 174.483 127.96 174.483C123.687 174.483 119.987 173.793 116.861 172.414C113.753 171.035 111.306 169.113 109.519 166.646C107.752 164.18 106.752 161.315 106.519 158.052H113.977C114.171 160.305 114.928 162.17 116.249 163.646C117.589 165.102 119.279 166.19 121.318 166.908C123.376 167.608 125.59 167.957 127.96 167.957C130.718 167.957 133.194 167.51 135.388 166.617C137.583 165.704 139.321 164.442 140.603 162.83C141.885 161.199 142.526 159.295 142.526 157.12C142.526 155.139 141.972 153.527 140.865 152.284C139.758 151.041 138.302 150.031 136.495 149.255C134.689 148.478 132.737 147.798 130.64 147.215L123.299 145.118C118.638 143.778 114.948 141.865 112.229 139.379C109.51 136.893 108.15 133.64 108.15 129.62C108.15 126.279 109.053 123.366 110.86 120.88C112.685 118.375 115.132 116.433 118.201 115.054C121.289 113.656 124.736 112.956 128.542 112.956C132.388 112.956 135.806 113.646 138.797 115.025C141.788 116.384 144.157 118.249 145.905 120.618C147.672 122.988 148.605 125.677 148.702 128.688H141.71Z" fill="white"/>
<rect x="135.185" y="106.14" width="5.12718" height="74.985" fill="white"/>
<rect x="115.958" y="106.14" width="5.12718" height="74.985" fill="white"/>
</svg>
