<svg width="600" height="200" viewBox="0 0 600 200" fill="none" xmlns="http://www.w3.org/2000/svg">
<rect width="600" height="200" fill="#61727C"/>
<path d="M150.736 115.328C150.053 115.413 149.52 115.264 149.136 114.88C148.795 114.539 148.624 114.155 148.624 113.728C148.624 113.387 148.731 113.067 148.944 112.768C149.2 112.512 149.563 112.341 150.032 112.256C151.141 112.085 152.528 111.787 154.192 111.36C155.899 110.933 157.648 110.379 159.44 109.696C161.275 108.971 162.939 108.075 164.432 107.008C166.352 105.643 167.909 104.32 169.104 103.04C170.299 101.76 171.259 100.224 171.984 98.432C172.197 97.8773 172.304 97.4507 172.304 97.152C172.304 96.64 172.069 96.192 171.6 95.808C171.173 95.424 170.533 94.8053 169.68 93.952C168.827 93.0987 167.867 92.5653 166.8 92.352C165.776 92.096 164.368 91.7547 162.576 91.328C161.381 90.9867 160.272 90.7093 159.248 90.496C158.267 90.2827 157.349 90.176 156.496 90.176C155.984 90.176 155.579 90.0053 155.28 89.664C154.981 89.3227 154.832 88.9387 154.832 88.512C154.832 87.7867 155.173 87.3387 155.856 87.168C156.581 86.9547 157.435 86.6773 158.416 86.336C159.44 85.9947 160.464 85.5893 161.488 85.12C162.512 84.6507 163.408 84.096 164.176 83.456C164.944 82.816 165.435 82.0907 165.648 81.28C165.733 80.896 165.797 80.5547 165.84 80.256C165.925 79.9147 165.968 79.5947 165.968 79.296C165.968 78.144 165.563 77.2693 164.752 76.672C163.984 76.0747 162.875 75.5627 161.424 75.136C160.869 74.9653 160.293 74.88 159.696 74.88C159.269 74.88 158.821 74.944 158.352 75.072C157.925 75.1573 157.349 75.3067 156.624 75.52C156.283 75.52 155.941 75.6267 155.6 75.84C155.259 76.0533 154.789 76.3093 154.192 76.608C154.064 76.6507 153.936 76.6933 153.808 76.736C153.68 76.736 153.552 76.736 153.424 76.736C152.869 76.736 152.4 76.5653 152.016 76.224C151.675 75.8827 151.504 75.4987 151.504 75.072C151.504 74.4747 151.867 74.048 152.592 73.792C153.019 73.664 153.424 73.472 153.808 73.216C154.235 72.96 154.789 72.7253 155.472 72.512C156.155 72.2987 156.837 72.128 157.52 72C158.203 71.872 158.907 71.808 159.632 71.808C160.101 71.808 160.549 71.8507 160.976 71.936C161.445 71.9787 161.936 72.0427 162.448 72.128C164.283 72.5547 165.925 73.3867 167.376 74.624C168.869 75.8613 169.616 77.4613 169.616 79.424C169.616 79.8507 169.573 80.2987 169.488 80.768C169.445 81.1947 169.317 81.6427 169.104 82.112C168.549 83.5627 167.675 84.7787 166.48 85.76C165.328 86.6987 164.091 87.488 162.768 88.128C162.853 88.128 162.981 88.1493 163.152 88.192C163.323 88.2347 163.493 88.2773 163.664 88.32C165.115 88.704 166.587 89.0667 168.08 89.408C169.616 89.7067 171.045 90.5387 172.368 91.904C172.752 92.288 173.221 92.736 173.776 93.248C174.331 93.7173 174.821 94.2933 175.248 94.976C175.675 95.6587 175.888 96.448 175.888 97.344C175.888 97.6427 175.845 97.984 175.76 98.368C175.717 98.752 175.589 99.1573 175.376 99.584C174.48 101.589 173.328 103.381 171.92 104.96C170.555 106.539 168.827 108.075 166.736 109.568C164.944 110.805 163.024 111.808 160.976 112.576C158.971 113.387 157.051 114.005 155.216 114.432C153.424 114.859 151.931 115.157 150.736 115.328ZM143.056 116.352C142.288 116.352 141.52 116.075 140.752 115.52C139.984 115.008 139.664 114.155 139.792 112.96C139.92 111.637 140.325 109.888 141.008 107.712C141.733 105.536 142.608 103.189 143.632 100.672C144.656 98.112 145.744 95.552 146.896 92.992C148.091 90.3893 149.243 88 150.352 85.824C151.504 83.648 152.485 81.856 153.296 80.448C153.68 79.7653 154.277 79.424 155.088 79.424C155.557 79.424 155.984 79.5947 156.368 79.936C156.752 80.2773 156.901 80.7467 156.816 81.344V81.28C156.773 81.7067 156.603 82.368 156.304 83.264C156.005 84.16 155.685 84.864 155.344 85.376C154.875 86.0587 154.299 86.7627 153.616 87.488C152.933 88.1707 152.336 89.0027 151.824 89.984C150.245 92.928 148.816 95.8293 147.536 98.688C146.299 101.504 145.296 104.085 144.528 106.432C143.76 108.736 143.312 110.635 143.184 112.128C143.141 112.427 143.269 112.747 143.568 113.088C143.909 113.429 144.229 113.771 144.528 114.112C144.869 114.453 145.04 114.795 145.04 115.136C145.04 115.435 144.805 115.733 144.336 116.032C143.995 116.245 143.568 116.352 143.056 116.352ZM188.346 114.176C186.085 114.176 183.909 113.557 181.818 112.32C180.111 111.296 178.917 110.016 178.234 108.48C177.551 106.944 177.21 105.301 177.21 103.552C177.21 101.803 177.445 100.011 177.914 98.176C178.426 96.3413 178.959 94.6347 179.514 93.056C180.154 91.3067 180.901 89.6427 181.754 88.064C182.65 86.4853 183.567 85.0773 184.506 83.84C184.933 83.2853 185.189 82.7947 185.274 82.368C185.402 81.9413 185.53 81.5573 185.658 81.216C185.829 80.832 186.127 80.4267 186.554 80C187.023 79.5307 187.791 78.976 188.858 78.336C189.797 77.7813 190.586 77.504 191.226 77.504C191.823 77.504 192.25 77.696 192.506 78.08C192.805 78.464 192.954 78.8907 192.954 79.36C192.954 80.2987 192.613 80.9813 191.93 81.408L191.994 81.472C191.653 81.6427 191.077 82.0053 190.266 82.56C189.455 83.072 188.751 83.6693 188.154 84.352C187.173 85.5467 186.149 87.0187 185.082 88.768C184.058 90.4747 183.183 92.2667 182.458 94.144C181.818 95.7653 181.285 97.4293 180.858 99.136C180.474 100.843 180.282 102.443 180.282 103.936C180.282 105.301 180.495 106.517 180.922 107.584C181.391 108.651 182.117 109.44 183.098 109.952C184.421 110.805 185.935 111.232 187.642 111.232C189.605 111.232 191.61 110.677 193.658 109.568C195.749 108.459 197.818 106.965 199.866 105.088C201.957 103.211 203.941 101.141 205.818 98.88C207.866 96.4053 209.53 94.272 210.81 92.48C212.133 90.688 213.263 89.024 214.202 87.488C215.183 85.9093 216.165 84.288 217.146 82.624C218.17 80.9173 219.407 78.9547 220.858 76.736C221.199 76.2667 221.626 75.84 222.138 75.456C222.693 75.0293 223.141 74.816 223.482 74.816C223.781 74.816 223.93 74.9867 223.93 75.328C223.93 75.6693 223.738 76.224 223.354 76.992C221.818 80.0213 220.346 82.7947 218.938 85.312C217.53 87.8293 215.973 90.3467 214.266 92.864C212.602 95.3387 210.575 98.048 208.186 100.992C206.351 103.211 204.367 105.323 202.234 107.328C200.101 109.333 197.861 110.976 195.514 112.256C193.167 113.536 190.778 114.176 188.346 114.176ZM220.592 118.848C220.165 118.848 219.845 118.741 219.632 118.528C219.418 118.315 219.312 118.059 219.312 117.76C219.312 117.077 219.738 116.651 220.592 116.48C221.701 116.224 223.152 115.691 224.944 114.88C226.736 114.112 228.677 113.131 230.768 111.936C232.858 110.741 234.906 109.419 236.912 107.968C238.96 106.517 240.752 105.003 242.288 103.424C243.866 101.845 244.997 100.267 245.68 98.688C246.405 97.1093 246.938 95.2107 247.28 92.992C247.664 90.7307 247.856 88.64 247.856 86.72C247.856 85.6533 247.792 84.6933 247.664 83.84C247.536 82.9867 247.344 82.3467 247.088 81.92C245.893 79.7867 244.4 78.208 242.608 77.184C240.858 76.1173 238.768 75.4987 236.336 75.328C236.122 75.2853 235.888 75.264 235.632 75.264C235.418 75.264 235.205 75.264 234.992 75.264C234.01 75.264 233.093 75.392 232.24 75.648C231.386 75.904 230.362 76.288 229.168 76.8C228.698 76.9707 228.272 77.184 227.888 77.44C227.504 77.6533 227.013 77.9307 226.416 78.272C226.16 78.4 225.904 78.464 225.648 78.464C225.221 78.464 224.837 78.2933 224.496 77.952C224.197 77.6107 224.048 77.248 224.048 76.864C224.048 76.2667 224.346 75.8187 224.944 75.52C225.456 75.264 225.925 75.008 226.352 74.752C226.778 74.4533 227.333 74.1547 228.016 73.856C229.466 73.2587 230.832 72.8107 232.112 72.512C233.434 72.1707 234.949 72.064 236.656 72.192C239.557 72.448 242.266 73.2373 244.784 74.56C247.344 75.8827 249.242 77.8027 250.479 80.32C250.821 81.0027 251.077 81.856 251.248 82.88C251.418 83.8613 251.504 84.9493 251.504 86.144C251.504 88.3627 251.226 90.7307 250.672 93.248C250.16 95.7227 249.456 97.9627 248.56 99.968C247.664 101.931 246.341 103.787 244.592 105.536C242.885 107.285 240.944 108.907 238.768 110.4C236.634 111.851 234.437 113.152 232.176 114.304C229.957 115.456 227.866 116.395 225.904 117.12C223.984 117.888 222.384 118.443 221.104 118.784C220.976 118.827 220.805 118.848 220.592 118.848ZM222.768 113.856C222.085 113.856 221.402 113.579 220.72 113.024C220.08 112.469 219.824 111.595 219.952 110.4C220.08 109.035 220.421 107.328 220.976 105.28C221.573 103.189 222.298 100.928 223.152 98.496C224.048 96.064 224.986 93.632 225.968 91.2C226.992 88.768 227.973 86.5067 228.912 84.416C229.85 82.2827 230.682 80.5333 231.408 79.168C231.792 78.4853 232.325 78.144 233.008 78.144C233.434 78.144 233.797 78.3147 234.096 78.656C234.437 78.9973 234.565 79.4667 234.48 80.064L234.544 80C234.501 80.4267 234.352 81.088 234.096 81.984C233.882 82.88 233.605 83.5627 233.264 84.032C232.837 84.7147 232.325 85.4187 231.728 86.144C231.13 86.8693 230.597 87.7227 230.128 88.704C228.037 93.0987 226.33 97.152 225.008 100.864C223.728 104.533 223.002 107.456 222.832 109.632C222.832 109.931 222.96 110.251 223.216 110.592C223.514 110.933 223.792 111.275 224.048 111.616C224.346 111.957 224.496 112.299 224.496 112.64C224.496 112.981 224.282 113.301 223.856 113.6C223.642 113.771 223.28 113.856 222.768 113.856ZM268.7 115.52C266.012 115.52 263.558 115.029 261.34 114.048C259.164 113.109 257.542 111.851 256.476 110.272C255.75 109.163 255.217 108.053 254.876 106.944C254.534 105.792 254.364 104.619 254.364 103.424C254.364 101.632 254.662 99.8827 255.26 98.176C255.857 96.4267 256.625 94.7627 257.564 93.184C258.545 91.5627 259.526 90.112 260.508 88.832C262.342 86.4427 264.518 84.2027 267.036 82.112C269.553 80.0213 272.198 78.2293 274.972 76.736C277.788 75.2 280.497 74.176 283.1 73.664C283.697 73.536 284.294 73.472 284.892 73.472C285.873 73.472 286.684 73.6213 287.324 73.92C287.964 74.2187 288.284 74.6027 288.284 75.072C288.284 75.584 287.878 76.1173 287.068 76.672C286.769 76.8427 286.428 76.928 286.044 76.928C285.617 76.928 285.169 76.8853 284.7 76.8C284.23 76.672 283.868 76.6293 283.612 76.672C281.393 77.0987 278.982 78.016 276.38 79.424C273.82 80.832 271.345 82.5173 268.956 84.48C266.609 86.4427 264.604 88.512 262.94 90.688C261.489 92.5227 260.252 94.5707 259.228 96.832C258.204 99.0933 257.692 101.291 257.692 103.424C257.692 104.363 257.798 105.259 258.012 106.112C258.268 106.965 258.652 107.755 259.164 108.48C259.59 109.077 260.358 109.76 261.468 110.528C262.577 111.253 263.878 111.872 265.372 112.384C266.865 112.896 268.401 113.152 269.98 113.152C270.62 113.152 271.26 113.088 271.9 112.96C272.54 112.875 273.158 112.704 273.756 112.448C276.017 111.509 277.788 110.613 279.068 109.76C280.39 108.864 281.457 108.032 282.268 107.264C283.078 106.453 283.846 105.771 284.572 105.216C285.34 104.235 285.894 103.403 286.236 102.72C286.577 101.995 286.748 101.419 286.748 100.992C286.748 100.267 286.278 99.904 285.34 99.904C284.145 99.9467 282.374 100.181 280.028 100.608C277.681 101.035 275.313 101.504 272.924 102.016C272.113 102.187 271.494 102.4 271.068 102.656C270.684 102.912 270.321 103.168 269.98 103.424C269.681 103.68 269.212 103.936 268.572 104.192C268.316 104.277 268.124 104.32 267.996 104.32C267.569 104.32 267.228 104.171 266.972 103.872C266.716 103.573 266.588 103.211 266.588 102.784C266.588 102.059 266.972 101.547 267.74 101.248C268.081 101.12 268.806 100.907 269.916 100.608C271.068 100.267 272.433 99.8827 274.012 99.456C275.59 99.0293 277.19 98.624 278.812 98.24C280.433 97.8133 281.905 97.472 283.228 97.216C284.55 96.96 285.51 96.832 286.108 96.832C288.753 96.9173 290.076 97.8987 290.076 99.776C290.076 101.397 289.094 103.445 287.132 105.92C286.961 106.091 286.534 106.581 285.852 107.392C285.169 108.203 284.23 109.12 283.036 110.144C281.841 111.168 280.412 112.128 278.748 113.024C277.084 113.963 275.185 114.645 273.052 115.072C272.326 115.243 271.601 115.349 270.876 115.392C270.15 115.477 269.425 115.52 268.7 115.52ZM307.012 115.52C304.324 115.52 301.871 115.029 299.652 114.048C297.476 113.109 295.855 111.851 294.788 110.272C294.063 109.163 293.529 108.053 293.188 106.944C292.847 105.792 292.676 104.619 292.676 103.424C292.676 101.632 292.975 99.8827 293.572 98.176C294.169 96.4267 294.937 94.7627 295.876 93.184C296.857 91.5627 297.839 90.112 298.82 88.832C300.655 86.4427 302.831 84.2027 305.348 82.112C307.865 80.0213 310.511 78.2293 313.284 76.736C316.1 75.2 318.809 74.176 321.412 73.664C322.009 73.536 322.5 73.472 322.884 73.472C323.524 73.472 323.993 73.5787 324.292 73.792C324.633 74.0053 324.804 74.2613 324.804 74.56C324.804 74.944 324.569 75.392 324.1 75.904C323.631 76.416 322.927 76.672 321.988 76.672H321.924C320.217 76.672 318.425 77.0987 316.548 77.952C314.671 78.7627 312.793 79.872 310.916 81.28C309.039 82.6453 307.268 84.16 305.604 85.824C303.94 87.4453 302.489 89.0667 301.252 90.688C299.801 92.5653 298.543 94.6773 297.476 97.024C296.409 99.328 295.876 101.547 295.876 103.68C295.876 105.557 296.345 107.179 297.284 108.544C297.967 109.483 299.225 110.379 301.06 111.232C302.895 112.043 304.964 112.448 307.268 112.448C308.377 112.448 309.508 112.32 310.66 112.064C313.305 111.424 315.375 110.699 316.868 109.888C318.404 109.035 319.599 108.181 320.452 107.328C321.348 106.475 322.137 105.771 322.82 105.216C323.076 105.088 323.289 105.024 323.46 105.024C323.972 105.024 324.228 105.408 324.228 106.176C324.228 106.603 324.121 107.051 323.908 107.52C323.737 107.989 323.439 108.352 323.012 108.608C322.713 108.779 322.201 109.291 321.476 110.144C320.751 110.955 319.599 111.829 318.02 112.768C316.441 113.749 314.223 114.517 311.364 115.072C310.639 115.243 309.913 115.349 309.188 115.392C308.463 115.477 307.737 115.52 307.012 115.52ZM300.74 100.544C300.313 100.544 299.972 100.395 299.716 100.096C299.46 99.7973 299.332 99.456 299.332 99.072C299.332 98.304 299.716 97.792 300.484 97.536C301.295 97.2373 301.999 96.9173 302.596 96.576C303.236 96.192 304.004 95.9147 304.9 95.744C304.9 95.744 305.263 95.6587 305.988 95.488C306.756 95.3173 307.716 95.104 308.868 94.848C310.063 94.5493 311.3 94.272 312.58 94.016C313.86 93.7173 315.055 93.4827 316.164 93.312C317.316 93.1413 318.191 93.056 318.788 93.056C319.3 93.056 319.684 93.184 319.94 93.44C320.196 93.696 320.324 93.9947 320.324 94.336C320.324 94.6773 320.196 95.0187 319.94 95.36C319.684 95.6587 319.279 95.8507 318.724 95.936C316.932 96.2773 315.353 96.512 313.988 96.64C312.623 96.768 311.279 96.9387 309.956 97.152C308.676 97.3227 307.247 97.6853 305.668 98.24V98.304C304.985 98.56 304.324 98.9013 303.684 99.328C303.044 99.712 302.255 100.075 301.316 100.416C301.06 100.501 300.868 100.544 300.74 100.544ZM331.488 72.352C331.232 72.352 330.976 72.128 330.72 71.68C330.464 71.232 330.336 70.752 330.336 70.24C330.336 69.344 330.688 68.736 331.392 68.416C334.4 66.944 337.088 65.472 339.456 64C341.824 62.528 344.608 61.28 347.808 60.256C350.752 59.36 353.952 58.688 357.408 58.24C360.928 57.792 364.064 57.568 366.816 57.568H370.08C372.064 57.568 373.92 57.664 375.648 57.856C377.376 58.048 378.944 58.592 380.352 59.488C380.352 59.488 380.672 59.616 381.312 59.872C382.016 60.128 382.56 60.544 382.944 61.12C383.2 61.44 383.36 61.792 383.424 62.176C383.488 62.56 383.52 62.976 383.52 63.424C383.52 63.68 383.52 63.936 383.52 64.192C383.52 64.448 383.488 64.736 383.424 65.056C383.36 65.568 383.264 66.176 383.135 66.88C383.072 67.52 382.784 68.096 382.272 68.608C381.888 69.184 381.408 69.568 380.832 69.76C380.256 69.952 379.904 70.048 379.776 70.048H379.583C379.008 70.048 378.592 69.888 378.336 69.568C378.144 69.248 378.048 68.864 378.048 68.416C378.048 67.648 378.176 66.912 378.432 66.208C378.752 65.44 378.912 65.024 378.912 64.96V64.864C378.912 64.416 378.464 63.872 377.568 63.232C376.032 62.144 374.208 61.504 372.096 61.312C369.984 61.12 367.648 61.024 365.088 61.024C362.784 61.024 360.16 61.344 357.216 61.984C354.336 62.56 351.328 63.392 348.192 64.48C345.12 65.568 342.144 66.784 339.264 68.128C336.448 69.408 333.952 70.784 331.776 72.256C331.712 72.32 331.616 72.352 331.488 72.352ZM346.464 114.784C345.44 114.784 344.416 114.368 343.392 113.536C342.432 112.768 342.048 111.488 342.24 109.696C342.432 107.712 342.912 105.184 343.68 102.112C344.512 99.04 345.504 95.744 346.656 92.224C347.872 88.64 349.152 85.056 350.496 81.472C351.904 77.888 353.248 74.56 354.528 71.488C355.872 68.352 357.088 65.728 358.176 63.616C358.752 62.592 359.552 62.08 360.576 62.08C361.152 62.08 361.664 62.304 362.112 62.752C362.56 63.136 362.784 63.744 362.784 64.576C362.784 64.768 362.688 65.28 362.496 66.112C362.368 66.944 362.144 67.84 361.824 68.8C361.568 69.696 361.28 70.4 360.96 70.912C360.32 71.936 359.552 73.024 358.656 74.176C357.76 75.264 356.96 76.544 356.256 78.016C353.12 84.608 350.752 90.528 349.152 95.776C347.616 100.96 346.72 105.184 346.464 108.448C346.464 108.896 346.656 109.376 347.04 109.888C347.488 110.4 347.904 110.912 348.288 111.424C348.736 111.936 348.96 112.448 348.96 112.96C348.96 113.472 348.64 113.952 348 114.4C347.68 114.656 347.168 114.784 346.464 114.784ZM378.491 116.352C377.893 116.352 377.317 116.139 376.763 115.712C376.208 115.328 375.931 114.624 375.931 113.6C375.931 113.472 375.931 113.323 375.931 113.152C375.931 113.024 375.952 112.875 375.995 112.704C376.933 107.413 378.192 102.549 379.771 98.112C381.392 93.6747 383.056 89.728 384.763 86.272C386.469 82.816 387.92 79.936 389.115 77.632C389.456 76.992 389.904 76.5227 390.458 76.224C391.056 75.8827 391.611 75.712 392.123 75.712C392.891 75.712 393.339 76.0107 393.467 76.608C394.32 76.2667 395.152 76.032 395.963 75.904C396.56 75.8187 397.157 75.7547 397.755 75.712C398.395 75.6267 399.035 75.584 399.675 75.584C401.339 75.584 402.896 75.8187 404.347 76.288C405.84 76.7147 407.056 77.4827 407.995 78.592C408.933 79.7013 409.403 81.216 409.403 83.136C409.403 85.312 408.72 87.1893 407.354 88.768C405.989 90.304 404.197 91.6907 401.979 92.928C399.803 94.1227 397.456 95.3387 394.939 96.576C394.341 96.704 393.552 96.9387 392.571 97.28C391.632 97.6213 390.971 97.792 390.587 97.792L390.651 97.856C390.736 98.1973 391.099 98.7733 391.739 99.584C392.421 100.395 393.211 101.291 394.107 102.272C395.045 103.253 396.027 104.213 397.051 105.152C398.075 106.091 399.013 106.901 399.867 107.584C400.72 108.224 401.36 108.629 401.787 108.8C402.768 109.099 403.451 109.419 403.835 109.76C404.219 110.059 404.411 110.336 404.411 110.592C404.411 110.848 404.24 111.061 403.899 111.232C403.557 111.403 403.152 111.488 402.683 111.488C401.915 111.488 400.869 111.125 399.547 110.4C398.224 109.632 396.837 108.693 395.387 107.584C393.936 106.432 392.613 105.28 391.419 104.128C390.224 102.933 389.371 101.931 388.859 101.12C388.688 100.693 388.368 100.416 387.899 100.288C387.429 100.117 386.981 99.904 386.555 99.648C386.128 99.392 385.915 98.9227 385.915 98.24C385.915 97.3013 386.192 96.6187 386.747 96.192C387.344 95.7227 388.069 95.4027 388.923 95.232C389.776 95.0187 390.629 94.8693 391.483 94.784C392.336 94.656 393.04 94.464 393.595 94.208C397.563 92.3733 400.741 90.4747 403.131 88.512C405.52 86.5493 406.565 84.5867 406.267 82.624C406.267 81.728 405.883 80.9387 405.115 80.256C404.347 79.5733 403.323 79.04 402.043 78.656C400.805 78.2293 399.44 78.016 397.947 78.016C397.179 78.016 396.368 78.08 395.515 78.208C395.045 78.208 394.683 78.3787 394.427 78.72C394.171 79.0187 393.851 79.36 393.467 79.744C393.125 80.128 392.549 80.4693 391.739 80.768C391.483 80.8533 391.291 80.896 391.163 80.896C390.395 82.2187 389.541 83.84 388.603 85.76C387.664 87.68 386.704 89.7067 385.723 91.84C384.741 93.9307 383.845 95.9573 383.035 97.92C382.224 99.8827 381.563 101.589 381.051 103.04C380.837 103.637 380.624 104.427 380.411 105.408C380.197 106.347 380.005 107.349 379.835 108.416C379.664 109.483 379.536 110.443 379.451 111.296C379.365 112.107 379.323 112.683 379.323 113.024C379.323 113.28 379.493 113.557 379.835 113.856C380.219 114.197 380.411 114.56 380.411 114.944C380.411 115.328 380.176 115.691 379.707 116.032C379.365 116.245 378.96 116.352 378.491 116.352ZM430.134 117.824C429.707 117.824 429.345 117.675 429.046 117.376C428.747 117.12 428.641 116.715 428.726 116.16C428.982 114.752 429.153 113.771 429.238 113.216C429.366 112.704 429.451 112.32 429.494 112.064C429.579 111.808 429.665 111.445 429.75 110.976C429.878 110.507 430.027 109.632 430.198 108.352C430.539 106.304 430.774 104.405 430.902 102.656C431.03 100.864 431.115 99.2213 431.158 97.728C429.537 97.8987 428.001 98.0693 426.55 98.24C425.142 98.4107 423.563 98.816 421.814 99.456H421.75C421.067 99.712 420.406 100.075 419.766 100.544C419.126 100.971 418.358 101.355 417.462 101.696C417.206 101.781 416.993 101.824 416.822 101.824C416.31 101.824 415.926 101.611 415.67 101.184C415.457 100.715 415.393 100.267 415.478 99.84C415.179 100.309 414.881 100.715 414.582 101.056C413.857 102.123 413.217 103.061 412.662 103.872C412.15 104.64 411.531 105.557 410.806 106.624C410.123 107.605 409.526 108.693 409.014 109.888C408.502 111.04 407.947 112.107 407.35 113.088C407.051 113.515 406.667 113.728 406.198 113.728C405.729 113.728 405.302 113.536 404.918 113.152C404.534 112.768 404.342 112.32 404.342 111.808C404.342 111.509 404.427 111.211 404.598 110.912C405.238 109.931 405.814 109.099 406.326 108.416C406.881 107.691 407.478 106.859 408.118 105.92C408.886 104.811 409.526 103.872 410.038 103.104C410.593 102.336 411.211 101.44 411.894 100.416C412.705 99.2213 413.43 98.176 414.07 97.28C414.753 96.384 415.414 95.488 416.054 94.592C416.737 93.6533 417.462 92.608 418.23 91.456C418.913 90.3893 419.446 89.3867 419.83 88.448C420.257 87.4667 420.705 86.5067 421.174 85.568C421.686 84.6293 422.411 83.6907 423.35 82.752L423.414 82.688C424.395 81.7067 425.377 80.5547 426.358 79.232C427.339 77.8667 428.043 76.7147 428.47 75.776C429.281 74.8373 430.177 74.368 431.158 74.368C432.31 74.368 433.27 75.008 434.038 76.288C434.209 76.7147 434.315 77.12 434.358 77.504C434.401 77.888 434.422 78.272 434.422 78.656C434.422 79.2533 434.379 79.8293 434.294 80.384C434.251 80.9387 434.23 81.4933 434.23 82.048C434.273 83.456 434.294 84.7147 434.294 85.824C434.337 86.8907 434.358 88.0213 434.358 89.216C434.358 89.7707 434.358 90.3467 434.358 90.944C434.358 91.5413 434.337 92.1813 434.294 92.864C434.294 93.0347 434.273 93.2693 434.23 93.568C434.23 93.8667 434.23 94.08 434.23 94.208H434.87C435.382 94.208 435.766 94.336 436.022 94.592C436.278 94.848 436.406 95.1467 436.406 95.488C436.406 95.8293 436.278 96.1707 436.022 96.512C435.766 96.8107 435.361 97.0027 434.806 97.088C434.678 97.1307 434.55 97.1733 434.422 97.216C434.294 97.216 434.145 97.2587 433.974 97.344C433.889 98.24 433.803 99.1573 433.718 100.096C433.633 100.992 433.526 101.995 433.398 103.104C433.227 104.768 433.078 106.261 432.95 107.584C432.865 108.864 432.737 110.187 432.566 111.552C432.438 112.875 432.203 114.496 431.862 116.416C431.777 116.885 431.563 117.227 431.222 117.44C430.881 117.696 430.518 117.824 430.134 117.824ZM420.79 92.864C419.937 94.2293 419.169 95.3173 418.486 96.128C417.803 96.9387 417.099 97.8347 416.374 98.816L416.566 98.624C417.377 98.3253 418.081 98.0053 418.678 97.664C419.318 97.28 420.086 97.0027 420.982 96.832C420.982 96.832 421.537 96.704 422.646 96.448C423.755 96.192 425.099 95.8933 426.678 95.552C428.299 95.168 429.835 94.848 431.286 94.592L431.35 92.416C431.35 92.032 431.35 91.648 431.35 91.264C431.393 90.88 431.414 90.5387 431.414 90.24C431.414 88.8747 431.371 87.6373 431.286 86.528C431.243 85.4187 431.201 84.0107 431.158 82.304C431.243 81.7067 431.307 81.152 431.35 80.64C431.393 80.128 431.414 79.6587 431.414 79.232C431.414 78.5493 431.35 78.08 431.222 77.824C431.137 77.824 430.987 77.8453 430.774 77.888C430.603 77.888 430.433 77.9733 430.262 78.144C429.494 78.656 428.811 79.4453 428.214 80.512C427.659 81.5787 426.913 82.816 425.974 84.224V84.16C424.907 85.7387 424.054 87.168 423.414 88.448C422.774 89.6853 421.899 91.1573 420.79 92.864ZM454.137 115.52C451.449 115.52 448.996 115.029 446.777 114.048C444.601 113.109 442.98 111.851 441.913 110.272C441.188 109.163 440.654 108.053 440.313 106.944C439.972 105.792 439.801 104.619 439.801 103.424C439.801 101.632 440.1 99.8827 440.697 98.176C441.294 96.4267 442.062 94.7627 443.001 93.184C443.982 91.5627 444.964 90.112 445.945 88.832C447.78 86.4427 449.956 84.2027 452.473 82.112C454.99 80.0213 457.636 78.2293 460.409 76.736C463.182 75.2 465.87 74.176 468.473 73.664C469.198 73.4933 470.052 73.408 471.033 73.408C472.996 73.408 474.83 73.8987 476.537 74.88C478.244 75.8613 479.268 77.4187 479.609 79.552C479.609 80.192 479.332 80.7253 478.777 81.152C478.265 81.5787 477.774 81.792 477.305 81.792C476.622 81.792 476.281 81.4293 476.281 80.704V80.64C476.281 79.6587 475.684 78.7413 474.489 77.888C473.337 76.992 471.972 76.544 470.393 76.544C470.18 76.544 469.945 76.5653 469.689 76.608C469.476 76.608 469.262 76.6293 469.049 76.672C466.83 77.0987 464.42 78.016 461.817 79.424C459.257 80.832 456.782 82.5173 454.393 84.48C452.046 86.4427 450.041 88.512 448.377 90.688C446.926 92.5653 445.668 94.6773 444.601 97.024C443.534 99.328 443.001 101.547 443.001 103.68C443.001 105.557 443.47 107.179 444.409 108.544C445.092 109.483 446.35 110.379 448.185 111.232C450.02 112.043 452.089 112.448 454.393 112.448C455.502 112.448 456.633 112.32 457.785 112.064C460.43 111.424 462.5 110.699 463.993 109.888C465.529 109.035 466.724 108.181 467.577 107.328C468.473 106.475 469.262 105.771 469.945 105.216C470.201 105.088 470.414 105.024 470.585 105.024C471.097 105.024 471.353 105.408 471.353 106.176C471.353 106.603 471.246 107.051 471.033 107.52C470.862 107.989 470.564 108.352 470.137 108.608C469.838 108.779 469.326 109.291 468.601 110.144C467.876 110.955 466.724 111.829 465.145 112.768C463.566 113.749 461.348 114.517 458.489 115.072C457.764 115.243 457.038 115.349 456.313 115.392C455.588 115.477 454.862 115.52 454.137 115.52ZM481.991 113.92C481.436 113.92 480.903 113.707 480.391 113.28C479.921 112.896 479.687 112.213 479.687 111.232C479.687 111.104 479.687 110.955 479.687 110.784C479.687 110.613 479.708 110.443 479.751 110.272C480.689 104.981 481.948 100.139 483.527 95.744C485.148 91.3067 486.812 87.36 488.519 83.904C490.225 80.448 491.676 77.568 492.871 75.264C493.212 74.624 493.66 74.1547 494.215 73.856C494.812 73.5147 495.345 73.344 495.815 73.344C496.156 73.344 496.455 73.4293 496.711 73.6C496.967 73.7707 497.095 74.0267 497.095 74.368C497.095 74.8373 496.817 75.4347 496.263 76.16C495.623 76.928 494.876 78.0373 494.023 79.488C493.169 80.9387 492.295 82.56 491.399 84.352C490.503 86.144 489.628 88.0213 488.775 89.984C487.964 91.9467 487.26 93.824 486.663 95.616C487.004 95.4027 487.537 94.9333 488.263 94.208C489.031 93.4827 489.799 92.8427 490.567 92.288C492.06 91.1787 493.553 90.112 495.047 89.088C496.54 88.064 498.204 86.9973 500.039 85.888C501.873 84.736 503.964 83.4773 506.311 82.112C508.657 80.7467 511.388 79.2107 514.503 77.504C514.801 77.3333 515.143 77.248 515.527 77.248C515.953 77.248 516.337 77.376 516.679 77.632C517.02 77.8453 517.233 78.208 517.319 78.72C517.404 79.104 517.255 79.4027 516.871 79.616C516.529 79.8293 516.124 80 515.655 80.128C515.185 80.256 514.801 80.4053 514.503 80.576C510.364 82.9227 506.887 85.0347 504.071 86.912C501.255 88.7893 498.801 90.432 496.711 91.84C494.663 93.248 492.679 94.464 490.759 95.488C490.204 95.7867 489.649 96.2347 489.095 96.832C488.54 97.4293 488.113 97.9627 487.815 98.432C487.516 98.9013 487.452 99.0933 487.623 99.008C487.708 99.3493 488.071 99.9253 488.711 100.736C489.393 101.547 490.204 102.443 491.143 103.424C492.081 104.405 493.041 105.365 494.023 106.304C495.047 107.243 495.985 108.053 496.839 108.736C497.692 109.376 498.353 109.781 498.823 109.952C499.804 110.251 500.487 110.592 500.871 110.976C501.255 111.36 501.447 111.723 501.447 112.064C501.447 112.448 501.276 112.768 500.935 113.024C500.593 113.28 500.188 113.408 499.719 113.408C499.591 113.408 499.463 113.387 499.335 113.344C499.249 113.344 499.143 113.323 499.015 113.28C498.289 113.024 497.244 112.469 495.878 111.616C494.513 110.72 493.063 109.696 491.527 108.544C490.033 107.349 488.647 106.176 487.367 105.024C486.129 103.872 485.255 102.912 484.743 102.144C484.444 102.912 484.124 103.872 483.783 105.024C483.484 106.176 483.249 107.285 483.079 108.352C482.908 109.376 482.823 110.123 482.823 110.592C482.823 110.848 482.993 111.147 483.335 111.488C483.719 111.787 483.911 112.128 483.911 112.512C483.911 112.896 483.676 113.259 483.207 113.6C482.865 113.813 482.46 113.92 481.991 113.92ZM521.512 115.52C518.824 115.52 516.371 115.029 514.152 114.048C511.976 113.109 510.355 111.851 509.288 110.272C508.563 109.163 508.029 108.053 507.688 106.944C507.347 105.792 507.176 104.619 507.176 103.424C507.176 101.632 507.475 99.8827 508.072 98.176C508.669 96.4267 509.437 94.7627 510.376 93.184C511.357 91.5627 512.339 90.112 513.32 88.832C515.155 86.4427 517.331 84.2027 519.848 82.112C522.365 80.0213 525.011 78.2293 527.784 76.736C530.6 75.2 533.309 74.176 535.912 73.664C536.509 73.536 537 73.472 537.384 73.472C538.024 73.472 538.493 73.5787 538.792 73.792C539.133 74.0053 539.304 74.2613 539.304 74.56C539.304 74.944 539.069 75.392 538.6 75.904C538.131 76.416 537.427 76.672 536.488 76.672H536.424C534.717 76.672 532.925 77.0987 531.048 77.952C529.171 78.7627 527.293 79.872 525.416 81.28C523.539 82.6453 521.768 84.16 520.104 85.824C518.44 87.4453 516.989 89.0667 515.752 90.688C514.301 92.5653 513.043 94.6773 511.976 97.024C510.909 99.328 510.376 101.547 510.376 103.68C510.376 105.557 510.845 107.179 511.784 108.544C512.467 109.483 513.725 110.379 515.56 111.232C517.395 112.043 519.464 112.448 521.768 112.448C522.877 112.448 524.008 112.32 525.16 112.064C527.805 111.424 529.875 110.699 531.368 109.888C532.904 109.035 534.099 108.181 534.952 107.328C535.848 106.475 536.637 105.771 537.32 105.216C537.576 105.088 537.789 105.024 537.96 105.024C538.472 105.024 538.728 105.408 538.728 106.176C538.728 106.603 538.621 107.051 538.408 107.52C538.237 107.989 537.939 108.352 537.512 108.608C537.213 108.779 536.701 109.291 535.976 110.144C535.251 110.955 534.099 111.829 532.52 112.768C530.941 113.749 528.723 114.517 525.864 115.072C525.139 115.243 524.413 115.349 523.688 115.392C522.963 115.477 522.237 115.52 521.512 115.52ZM515.24 100.544C514.813 100.544 514.472 100.395 514.216 100.096C513.96 99.7973 513.832 99.456 513.832 99.072C513.832 98.304 514.216 97.792 514.984 97.536C515.795 97.2373 516.499 96.9173 517.096 96.576C517.736 96.192 518.504 95.9147 519.4 95.744C519.4 95.744 519.763 95.6587 520.488 95.488C521.256 95.3173 522.216 95.104 523.368 94.848C524.563 94.5493 525.8 94.272 527.08 94.016C528.36 93.7173 529.555 93.4827 530.664 93.312C531.816 93.1413 532.691 93.056 533.288 93.056C533.8 93.056 534.184 93.184 534.44 93.44C534.696 93.696 534.824 93.9947 534.824 94.336C534.824 94.6773 534.696 95.0187 534.44 95.36C534.184 95.6587 533.779 95.8507 533.224 95.936C531.432 96.2773 529.853 96.512 528.488 96.64C527.123 96.768 525.779 96.9387 524.456 97.152C523.176 97.3227 521.747 97.6853 520.168 98.24V98.304C519.485 98.56 518.824 98.9013 518.184 99.328C517.544 99.712 516.755 100.075 515.816 100.416C515.56 100.501 515.368 100.544 515.24 100.544ZM546.116 116.352C545.518 116.352 544.942 116.139 544.388 115.712C543.833 115.328 543.556 114.624 543.556 113.6C543.556 113.472 543.556 113.323 543.556 113.152C543.556 113.024 543.577 112.875 543.62 112.704C544.558 107.413 545.817 102.549 547.396 98.112C549.017 93.6747 550.681 89.728 552.388 86.272C554.094 82.816 555.545 79.936 556.74 77.632C557.081 76.992 557.529 76.5227 558.083 76.224C558.681 75.8827 559.236 75.712 559.748 75.712C560.516 75.712 560.964 76.0107 561.092 76.608C561.945 76.2667 562.777 76.032 563.588 75.904C564.185 75.8187 564.782 75.7547 565.38 75.712C566.02 75.6267 566.66 75.584 567.3 75.584C568.964 75.584 570.521 75.8187 571.972 76.288C573.465 76.7147 574.681 77.4827 575.62 78.592C576.558 79.7013 577.028 81.216 577.028 83.136C577.028 85.312 576.345 87.1893 574.979 88.768C573.614 90.304 571.822 91.6907 569.604 92.928C567.428 94.1227 565.081 95.3387 562.564 96.576C561.966 96.704 561.177 96.9387 560.196 97.28C559.257 97.6213 558.596 97.792 558.212 97.792L558.276 97.856C558.361 98.1973 558.724 98.7733 559.364 99.584C560.046 100.395 560.836 101.291 561.732 102.272C562.67 103.253 563.652 104.213 564.676 105.152C565.7 106.091 566.638 106.901 567.492 107.584C568.345 108.224 568.985 108.629 569.412 108.8C570.393 109.099 571.076 109.419 571.46 109.76C571.844 110.059 572.036 110.336 572.036 110.592C572.036 110.848 571.865 111.061 571.524 111.232C571.182 111.403 570.777 111.488 570.308 111.488C569.54 111.488 568.494 111.125 567.172 110.4C565.849 109.632 564.462 108.693 563.012 107.584C561.561 106.432 560.238 105.28 559.044 104.128C557.849 102.933 556.996 101.931 556.484 101.12C556.313 100.693 555.993 100.416 555.524 100.288C555.054 100.117 554.606 99.904 554.18 99.648C553.753 99.392 553.54 98.9227 553.54 98.24C553.54 97.3013 553.817 96.6187 554.372 96.192C554.969 95.7227 555.694 95.4027 556.548 95.232C557.401 95.0187 558.254 94.8693 559.108 94.784C559.961 94.656 560.665 94.464 561.22 94.208C565.188 92.3733 568.366 90.4747 570.756 88.512C573.145 86.5493 574.19 84.5867 573.892 82.624C573.892 81.728 573.508 80.9387 572.74 80.256C571.972 79.5733 570.948 79.04 569.668 78.656C568.43 78.2293 567.065 78.016 565.572 78.016C564.804 78.016 563.993 78.08 563.14 78.208C562.67 78.208 562.308 78.3787 562.052 78.72C561.796 79.0187 561.476 79.36 561.092 79.744C560.75 80.128 560.174 80.4693 559.364 80.768C559.108 80.8533 558.916 80.896 558.788 80.896C558.02 82.2187 557.166 83.84 556.228 85.76C555.289 87.68 554.329 89.7067 553.348 91.84C552.366 93.9307 551.47 95.9573 550.66 97.92C549.849 99.8827 549.188 101.589 548.676 103.04C548.462 103.637 548.249 104.427 548.036 105.408C547.822 106.347 547.63 107.349 547.46 108.416C547.289 109.483 547.161 110.443 547.076 111.296C546.99 112.107 546.948 112.683 546.948 113.024C546.948 113.28 547.118 113.557 547.46 113.856C547.844 114.197 548.036 114.56 548.036 114.944C548.036 115.328 547.801 115.691 547.332 116.032C546.99 116.245 546.585 116.352 546.116 116.352Z" fill="white"/>
<path d="M122.983 99.8194C123.005 100.592 122.774 101.345 122.351 101.992C109.004 122.386 96.9705 134.992 80.2172 153.701C78.639 155.463 75.874 155.484 74.2791 153.737C56.1808 133.91 46.7572 121.804 32.7399 102.039C32.261 101.364 31.9944 100.558 32.0188 99.7304C32.7125 76.2314 52.4646 43 77.2714 43C102.109 43 122.322 76.3154 122.983 99.8194Z" fill="white"/>
<circle cx="77" cy="91" r="29" stroke="#61727C" stroke-width="2"/>
<path d="M75.6667 115V67H78.3333V115H75.6667ZM84.6423 81.4C84.4472 79.5 83.6558 78.025 82.2683 76.975C80.8808 75.925 79.1789 75.4 77.1626 75.4C75.6883 75.4 74.3984 75.675 73.2927 76.225C72.1978 76.775 71.3415 77.5313 70.7236 78.4938C70.1165 79.4563 69.813 80.55 69.813 81.775C69.813 82.8 70.0244 83.6812 70.4472 84.4188C70.8808 85.1437 71.4336 85.75 72.1057 86.2375C72.7778 86.7125 73.4824 87.1062 74.2195 87.4187C74.9566 87.7187 75.6341 87.9625 76.252 88.15L79.6341 89.2C80.5014 89.4625 81.4661 89.825 82.5285 90.2875C83.6016 90.75 84.626 91.3812 85.6016 92.1812C86.5881 92.9687 87.4011 93.9813 88.0407 95.2188C88.6802 96.4563 89 97.975 89 99.775C89 101.85 88.5285 103.725 87.5854 105.4C86.6531 107.075 85.2873 108.406 83.4878 109.394C81.6992 110.381 79.5257 110.875 76.9675 110.875C74.5827 110.875 72.5176 110.431 70.7724 109.544C69.0379 108.656 67.6721 107.419 66.6748 105.831C65.6883 104.244 65.1301 102.4 65 100.3H69.1626C69.271 101.75 69.6938 102.95 70.4309 103.9C71.1789 104.837 72.122 105.537 73.2602 106C74.4092 106.45 75.645 106.675 76.9675 106.675C78.5068 106.675 79.8889 106.387 81.1138 105.812C82.3388 105.225 83.3089 104.413 84.0244 103.375C84.7398 102.325 85.0976 101.1 85.0976 99.7C85.0976 98.425 84.7886 97.3875 84.1707 96.5875C83.5528 95.7875 82.7398 95.1375 81.7317 94.6375C80.7236 94.1375 79.6341 93.7 78.4634 93.325L74.3659 91.975C71.7642 91.1125 69.7046 89.8812 68.187 88.2812C66.6694 86.6812 65.9106 84.5875 65.9106 82C65.9106 79.85 66.4146 77.975 67.4228 76.375C68.4417 74.7625 69.8076 73.5125 71.5203 72.625C73.2439 71.725 75.168 71.275 77.2927 71.275C79.439 71.275 81.3469 71.7188 83.0163 72.6063C84.6856 73.4813 86.0081 74.6812 86.9837 76.2063C87.9702 77.7313 88.4905 79.4625 88.5447 81.4H84.6423Z" fill="#61727C"/>
</svg>
